<svg xmlns="http://www.w3.org/2000/svg" viewBox="0 0 24 24" fill="none" stroke="currentColor" stroke-width="1.75" stroke-linecap="round" stroke-linejoin="round">
  <path d="M11 4 C 7.5 4, 5 6.2, 5 9 C 5 9.6, 5.1 10.2, 5.3 10.7 C 4.5 11.3, 4 12.3, 4 13.4 C 4 15.2, 5.4 16.7, 7.2 16.9 C 7.6 18.6, 9.2 20, 11 20 C 12 20, 13 19.6, 13.7 19"></path>
  <path d="M8 8.5 C 9.5 9.5, 9.5 11, 8 12 C 9.5 13, 9.5 14.5, 8 15.5" stroke-opacity="0.55"></path>
  <path d="M13.7 6.5 L17 6.5 L17 9"></path>
  <circle cx="17" cy="10.2" r="1.2" fill="none" stroke="currentColor"></circle>
  <path d="M13.7 12 L19.5 12"></path>
  <circle cx="20.5" cy="12" r="1.2" fill="none" stroke="currentColor"></circle>
  <path d="M13.7 17.5 L17 17.5 L17 15"></path>
  <circle cx="17" cy="13.8" r="1.2" fill="none" stroke="currentColor"></circle>
</svg>